Coordinates
version=1
nRows=13
nColumns=36
inDegrees=yes

Units are S.I. units (second, meters, Newtons, ...)
If the header above contains a line with 'inDegrees', this indicates whether rotational values are in degrees (yes) or radians (no).

endheader
time	pelvis_tilt	pelvis_list	pelvis_rotation	pelvis_tx	pelvis_ty	pelvis_tz	hip_flexion_r	hip_adduction_r	hip_rotation_r	knee_angle_r	knee_angle_r_beta	ankle_angle_r	subtalar_angle_r	mtp_angle_r	hip_flexion_l	hip_adduction_l	hip_rotation_l	knee_angle_l	knee_angle_l_beta	ankle_angle_l	subtalar_angle_l	mtp_angle_l	lumbar_extension	lumbar_bending	lumbar_rotation	arm_flex_r	arm_add_r	arm_rot_r	elbow_flex_r	pro_sup_r	arm_flex_l	arm_add_l	arm_rot_l	elbow_flex_l	pro_sup_l
      7.30000000	    -18.69729484	      1.63347715	     -3.32361630	      0.89865918	      0.65284261	      0.03069235	     70.32279173	     -1.08021482	      9.04809695	     79.78919247	      1.39258412	     31.92335210	    -17.23608102	     -7.49999987	     71.08848315	      2.23788129	      7.42160893	     82.84613584	      1.44593784	     26.70984550	    -22.85903099	     -7.49999987	    -28.10120182	     -2.15265724	      1.74979139	      4.72091781	    -34.61172739	   -273.15996306	     17.23634026	     37.59217089	    -19.24749906	     -6.54232161	    -27.52479011	      3.04243344	     75.99005766
      7.31666670	    -16.33028423	      1.81283853	     -3.37577028	      0.90057328	      0.64702306	      0.02767792	     69.10072866	     -1.42906694	      9.59125543	     82.12123260	      1.43328589	     32.43932402	    -16.62876470	     -7.49999987	     69.61500413	      2.75536084	      7.17892778	     84.85724128	      1.48103825	     27.18328699	    -23.50601835	     -7.49999987	    -31.58709290	     -1.74788728	      1.94368101	      7.68809015	    -27.70173891	   -310.10958973	      7.24979367	     73.75554587	    -11.24806405	     -8.34826822	     -1.49880459	      4.11787506	     72.49762273
      7.33333330	    -14.15593139	      1.98906529	     -3.30710884	      0.90386646	      0.64024040	      0.03220562	     67.78879259	     -1.49341136	     10.22879423	     84.33649490	      1.47194952	     33.00346748	    -16.99841172	     -7.49999987	     68.08337339	      3.13056466	      7.18687268	     86.43618362	      1.50859600	     28.19006067	    -23.73979246	     -7.49999987	    -35.02400422	     -1.38755802	      1.36477132	     13.33642982	    -24.61149811	   -309.31095963	      7.46810105	     71.73855504	     -4.01757457	    -10.36716929	     12.83363103	      7.52489703	     76.02685875
      7.35000000	    -12.01498012	      2.43204329	     -2.98480676	      0.91835564	      0.63002904	      0.02279553	     66.26458082	     -2.30811052	     11.32858866	     87.01309751	      1.51866504	     34.28000025	    -16.32788055	     -7.49999987	     66.52898354	      4.39498518	      6.76757054	     88.76136319	      1.54917804	     29.81067708	    -24.38881515	     -7.49999987	    -37.90415259	     -0.95044486	      0.81495418	     18.09682983	    -22.95017435	   -304.58794000	     10.70674935	     61.42505086	      2.70590651	    -13.71183117	     46.25715253	     16.42865018	     53.25041151
      7.36666670	    -10.62361194	      2.57351210	     -2.47167098	      0.93985118	      0.62654366	      0.02450076	     64.11597450	     -2.92465407	     12.18042157	     88.84268112	      1.55059730	     35.67037431	    -16.16720550	     -7.49999987	     64.62254677	      5.43186176	      6.95360152	     90.33664234	      1.57667184	     31.00303399	    -25.29800623	     -7.49999987	    -38.66744953	      0.07703300	     -0.66009290	     22.53831475	    -19.82649282	   -305.12649772	     12.65195104	     61.31871747	      9.55516985	    -11.74759793	     45.84940570	     19.02047741	     53.73339469
      7.38333330	     -9.81829011	      2.74693068	     -1.87718209	      0.94850073	      0.63360729	      0.02628228	     61.71858601	     -3.03069770	     12.76520769	     89.43041264	      1.56085515	     36.31131527	    -16.78063684	     -7.49999987	     62.37540569	      6.44072478	      7.19676849	     90.34052569	      1.57673962	     31.90549291	    -26.00694724	     -7.49999987	    -38.00866054	      0.80740520	     -1.56566947	     27.86818257	    -14.94931224	   -306.73077290	     16.04961136	     61.38176403	     17.77860357	    -12.73180536	     42.98255035	     21.33784834	     54.36725694
      7.40000000	     -9.94415014	      2.66095031	     -1.80205919	      0.93202902	      0.64714626	      0.02920669	     60.85061968	     -2.34105804	     12.91924514	     88.32446574	      1.54155274	     35.80540254	    -17.39735588	     -7.49999987	     61.66520836	      6.54927219	      7.21071803	     89.28443175	      1.55830730	     30.65807354	    -27.48225616	     -7.49999987	    -36.90240774	      1.42716301	     -1.65385394	     34.78785876	    -10.56869747	   -318.13493715	     22.96154509	     77.65447164	     26.66644738	    -13.02713734	     28.58993026	     28.87361865	     81.04477778
      7.41666670	     -9.73823473	      2.75533262	     -2.09536741	      0.91097225	      0.65286539	      0.02203966	     61.19319409	     -1.67896722	     13.62249265	     87.18117241	      1.52159850	     34.28149650	    -18.00973563	     -7.49999987	     61.30931348	      6.83085401	      7.07367900	     87.47624578	      1.52674851	     29.26471271	    -28.77154176	     -7.49999987	    -36.08789645	      1.97738214	     -0.54572764	     44.06373672	     -8.04300724	   -321.92150998	     28.80339026	     78.53358128	     38.53681491	    -12.50873501	     29.56568832	     34.91237874	     82.40393250
      7.43333330	     -8.97236577	      2.83506095	     -2.62466497	      0.92645987	      0.66301247	      0.02057855	     59.30152513	     -1.08066490	     14.30495133	     84.97774313	      1.48314141	     33.51561541	    -18.98059900	     -7.49999987	     59.59308109	      6.71110937	      6.92523169	     85.68965689	      1.49556665	     27.80805278	    -29.00289680	     -7.49999987	    -35.10351929	      1.92719698	      1.55829644	     52.03133830	     -5.18655185	   -326.98921365	     38.80673325	     83.58490894	     45.27395071	     -9.36166913	     29.84222662	     44.92954662	     89.59730473
      7.45000000	     -7.61999253	      2.52450504	     -2.41700530	      0.94056916	      0.68559495	      0.04461250	     55.15345714	      0.22347335	     13.93113924	     81.37671746	      1.42029165	     31.98453712	    -21.14128487	     -7.49999987	     55.43148508	      5.75095731	      7.93790901	     81.78052163	      1.42733937	     25.92500942	    -28.96005740	     -7.49999987	    -34.93005821	      0.86051783	      1.62471495	     58.73145214	      0.14823668	   -333.42918987	     42.11228560	     80.72657776	     50.85440295	     -5.47857795	     37.45883723	     50.18216764	     87.52061423
      7.46666670	     -8.03687873	      2.46413315	     -2.59343694	      0.93653388	      0.67892275	      0.03220247	     54.39920855	      0.49394769	     13.74799345	     79.63133171	      1.38982893	     31.02764920	    -21.98222434	     -7.49999987	     54.42987919	      5.10829881	      7.89711389	     79.37186296	      1.38530034	     25.80703334	    -28.56316198	     -7.49999987	    -29.96924111	      0.72433353	     -0.86798449	     62.75046576	      4.58852260	   -345.45273816	     49.44722302	     85.83817316	     54.92565253	     -1.48069972	     48.20399625	     57.50353157	     83.28222905
      7.48333330	     -8.38713986	      2.29126216	     -2.53993756	      0.94179445	      0.69091973	      0.03549927	     52.90148412	      0.78860177	     13.68906134	     77.15804724	      1.34666197	     30.17536528	    -22.36129278	     -7.49999987	     53.05933613	      4.43306444	      8.01137116	     76.54446848	      1.33595300	     25.25897074	    -28.51753121	     -7.49999987	    -24.94311057	      0.35865744	     -3.62017233	     64.95203999	      8.83972886	   -354.74320232	     61.16244918	     85.09356865	     59.11133173	      1.80297666	     51.60786320	     72.50624991	     82.81734253
      7.50000000	     -8.93837167	      2.29014115	     -2.36379370	      0.95193474	      0.70616192	      0.03288057	     51.10471483	      0.32624957	     13.42375108	     74.01602027	      1.29182325	     28.94361742	    -23.12765752	     -7.49999987	     51.40119257	      4.24923039	      7.96953301	     73.46093273	      1.28213515	     24.90490822	    -27.59918943	     -7.49999987	    -20.28074159	      0.34710819	     -3.30071925	     65.70241077	     10.71894617	   -360.44200866	     81.20007884	     93.23511673	     61.46192954	      5.71488708	     49.43004034	     86.63811845	     88.63051996
